<svg width="28" height="20" viewBox="0 0 28 20" fill="none" xmlns="http://www.w3.org/2000/svg">
<path d="M21.9545 12.2705V8.08374H17.8182V6.15137H21.9545V1.96457H23.8636V6.15137H28V8.08374H23.8636V12.2705H21.9545ZM10.1818 9.66184C8.78182 9.66184 7.63636 9.21095 6.74545 8.30918C5.85455 7.40741 5.40909 6.24799 5.40909 4.83092C5.40909 3.41385 5.85455 2.25443 6.74545 1.35266C7.63636 0.450886 8.78182 0 10.1818 0C11.5818 0 12.7273 0.450886 13.6182 1.35266C14.5091 2.25443 14.9545 3.41385 14.9545 4.83092C14.9545 6.24799 14.5091 7.40741 13.6182 8.30918C12.7273 9.21095 11.5818 9.66184 10.1818 9.66184ZM0 20V16.9726C0 16.2211 0.185606 15.5395 0.556818 14.9275C0.92803 14.3156 1.46364 13.8594 2.16364 13.5588C3.75455 12.8502 5.17045 12.351 6.41136 12.0612C7.65227 11.7713 8.90909 11.6264 10.1818 11.6264C11.4545 11.6264 12.7061 11.7713 13.9364 12.0612C15.1667 12.351 16.5773 12.8502 18.1682 13.5588C18.8682 13.8808 19.4091 14.3425 19.7909 14.9436C20.1727 15.5448 20.3636 16.2211 20.3636 16.9726V20H0Z" fill="#CEE2EA"/>
</svg>
