<svg width="20" height="21" viewBox="0 0 20 21" fill="none" xmlns="http://www.w3.org/2000/svg">
<path d="M4.77292 3.58124C4.39375 3.58124 4.07326 3.71214 3.81146 3.97394C3.54965 4.23575 3.41875 4.55624 3.41875 4.9354C3.41875 5.31457 3.54965 5.63505 3.81146 5.89686C4.07326 6.15867 4.39375 6.28957 4.77292 6.28957C5.15208 6.28957 5.47257 6.15867 5.73438 5.89686C5.99618 5.63505 6.12708 5.31457 6.12708 4.9354C6.12708 4.55624 5.99618 4.23575 5.73438 3.97394C5.47257 3.71214 5.15208 3.58124 4.77292 3.58124ZM4.77292 14.7937C4.39375 14.7937 4.07326 14.9246 3.81146 15.1864C3.54965 15.4482 3.41875 15.7687 3.41875 16.1479C3.41875 16.5271 3.54965 16.8476 3.81146 17.1094C4.07326 17.3712 4.39375 17.5021 4.77292 17.5021C5.15208 17.5021 5.47257 17.3712 5.73438 17.1094C5.99618 16.8476 6.12708 16.5271 6.12708 16.1479C6.12708 15.7687 5.99618 15.4482 5.73438 15.1864C5.47257 14.9246 5.15208 14.7937 4.77292 14.7937ZM1.17083 0.277069H18.8021C19.091 0.277069 19.3212 0.362833 19.4927 0.534361C19.6642 0.705888 19.75 0.936097 19.75 1.22499V8.5104C19.75 8.81735 19.6642 9.07915 19.4927 9.29582C19.3212 9.51249 19.091 9.62082 18.8021 9.62082H1.17083C0.9 9.62082 0.678819 9.51249 0.507292 9.29582C0.335764 9.07915 0.25 8.81735 0.25 8.5104V1.22499C0.25 0.936097 0.335764 0.705888 0.507292 0.534361C0.678819 0.362833 0.9 0.277069 1.17083 0.277069ZM1.17083 11.4625H18.6938C18.9646 11.4625 19.2083 11.5753 19.425 11.801C19.6417 12.0267 19.75 12.284 19.75 12.5729V19.7229C19.75 20.084 19.6417 20.3594 19.425 20.5489C19.2083 20.7385 18.9646 20.8333 18.6938 20.8333H1.30625C1.01736 20.8333 0.769097 20.7385 0.561458 20.5489C0.353819 20.3594 0.25 20.084 0.25 19.7229V12.5729C0.25 12.284 0.335764 12.0267 0.507292 11.801C0.678819 11.5753 0.9 11.4625 1.17083 11.4625Z" fill="#92D7F3"/>
</svg>
