<svg width="10" height="10" viewBox="0 0 10 10" fill="none" xmlns="http://www.w3.org/2000/svg">
<path d="M9.96431 9.79174C9.36416 9.19158 9.42431 8.24548 9.49406 7.14996C9.58993 5.64046 9.70758 3.76841 8.0897 2.08286L8.74166 1.4309L9.08652 1.77576C9.1174 1.80673 9.16266 1.81847 9.20434 1.80732C9.24645 1.79609 9.2792 1.76317 9.2906 1.72107L9.60619 0.543144C9.61751 0.501035 9.60543 0.456205 9.57463 0.425325C9.54375 0.394445 9.49926 0.382537 9.45681 0.393766L8.27898 0.709359C8.23688 0.720588 8.20413 0.753508 8.19273 0.795616C8.18141 0.837724 8.19349 0.882555 8.22429 0.913435L8.56915 1.2583L7.91719 1.91026C6.23169 0.292199 4.35926 0.410275 2.85012 0.505898C1.75489 0.575652 0.808437 0.635624 0.20835 0.0356436C0.169474 -0.00306085 0.109587 -0.0110574 0.0620349 0.0156529C0.0143128 0.0426195 -0.00959184 0.0980836 0.00359413 0.15125C0.00759216 0.167583 0.0739447 0.418107 0.350327 0.688447L0.837152 8.14623L0.302265 8.68097C0.268749 8.71465 0.257605 8.76476 0.274108 8.80942C0.290611 8.85408 0.331442 8.88504 0.37874 8.88878L0.906658 8.93132C0.88335 8.97708 0.889304 9.03391 0.927669 9.07219C0.966458 9.11098 1.02167 9.11753 1.06854 9.0932L1.11099 9.62112C1.11473 9.66859 1.14578 9.70942 1.19035 9.72584C1.2345 9.74209 1.28512 9.73145 1.3188 9.69768L1.85369 9.16294L9.31144 9.64962C9.58178 9.92599 9.8323 9.99226 9.84863 9.99644C9.90086 10.0095 9.95718 9.98606 9.98423 9.938C10.0112 9.89028 10.0029 9.83039 9.96432 9.79168L9.96431 9.79174ZM1.29315 7.7526C1.25742 7.74945 1.22135 7.76221 1.19575 7.78781L1.0667 7.91686L0.608535 0.896797C0.739027 0.985097 0.89512 1.06974 1.08558 1.14264C1.60289 1.34061 2.20838 1.37374 2.84924 1.4088L2.85233 1.40897C4.12306 1.47813 5.55964 1.55724 6.94292 2.88481L2.0089 7.81884L1.29315 7.7526ZM2.08324 8.93333L2.21212 8.80445C2.23772 8.77885 2.25065 8.74312 2.24733 8.70705L2.18115 7.9913L7.11517 3.05727C8.44289 4.44046 8.522 5.87718 8.59114 7.14787C8.62602 7.78995 8.6592 8.3964 8.85748 8.91463C8.93029 9.10501 9.01502 9.2611 9.10323 9.39159L2.08324 8.93333Z" fill="#A0F392"/>
<path d="M9.96431 9.79174C9.36416 9.19158 9.42431 8.24548 9.49406 7.14996C9.58993 5.64046 9.70758 3.76841 8.0897 2.08286L8.74166 1.4309L9.08652 1.77576C9.1174 1.80673 9.16266 1.81847 9.20434 1.80732C9.24645 1.79609 9.2792 1.76317 9.2906 1.72107L9.60619 0.543144C9.61751 0.501035 9.60543 0.456205 9.57463 0.425325C9.54375 0.394445 9.49926 0.382537 9.45681 0.393766L8.27898 0.709359C8.23688 0.720588 8.20413 0.753508 8.19273 0.795616C8.18141 0.837724 8.19349 0.882555 8.22429 0.913435L8.56915 1.2583L7.91719 1.91026C6.23169 0.292199 4.35926 0.410275 2.85012 0.505898C1.75489 0.575652 0.808437 0.635624 0.20835 0.0356436C0.169474 -0.00306085 0.109587 -0.0110574 0.0620349 0.0156529C0.0143128 0.0426195 -0.00959184 0.0980836 0.00359413 0.15125C0.00759216 0.167583 0.0739447 0.418107 0.350327 0.688447L0.837152 8.14623L0.302265 8.68097C0.268749 8.71465 0.257605 8.76476 0.274108 8.80942C0.290611 8.85408 0.331442 8.88504 0.37874 8.88878L0.906658 8.93132C0.88335 8.97708 0.889304 9.03391 0.927669 9.07219C0.966458 9.11098 1.02167 9.11753 1.06854 9.0932L1.11099 9.62112C1.11473 9.66859 1.14578 9.70942 1.19035 9.72584C1.2345 9.74209 1.28512 9.73145 1.3188 9.69768L1.85369 9.16294L9.31144 9.64962C9.58178 9.92599 9.8323 9.99226 9.84863 9.99644C9.90086 10.0095 9.95718 9.98606 9.98423 9.938C10.0112 9.89028 10.0029 9.83039 9.96432 9.79168L9.96431 9.79174ZM1.29315 7.7526C1.25742 7.74945 1.22135 7.76221 1.19575 7.78781L1.0667 7.91686L0.608535 0.896797C0.739027 0.985097 0.89512 1.06974 1.08558 1.14264C1.60289 1.34061 2.20838 1.37374 2.84924 1.4088L2.85233 1.40897C4.12306 1.47813 5.55964 1.55724 6.94292 2.88481L2.0089 7.81884L1.29315 7.7526ZM2.08324 8.93333L2.21212 8.80445C2.23772 8.77885 2.25065 8.74312 2.24733 8.70705L2.18115 7.9913L7.11517 3.05727C8.44289 4.44046 8.522 5.87718 8.59114 7.14787C8.62602 7.78995 8.6592 8.3964 8.85748 8.91463C8.93029 9.10501 9.01502 9.2611 9.10323 9.39159L2.08324 8.93333Z" stroke="#A0F392"/>
</svg>
