<svg width="99" height="98" viewBox="0 0 99 98" fill="none" xmlns="http://www.w3.org/2000/svg">
<path fill-rule="evenodd" clip-rule="evenodd" d="M49.6619 97.8318H33.6499V89.5619H42.4477C37.2277 83.9899 21.5441 73.5498 0.570068 76.3651L4.61707 63.1684C13.9813 61.2955 36.0886 62.9151 49.7499 84.3208C63.4113 62.9151 85.5186 61.2955 94.8828 63.1684L98.9298 76.3651C77.9558 73.5498 62.2722 83.9899 57.0521 89.5619H65.8499V97.8318H49.8379H49.6619Z" fill="#92D7F3"/>
<path fill-rule="evenodd" clip-rule="evenodd" d="M49.4859 74.2537L30.6585 46.9804L44.735 24.6339L43.6793 23.5782L33.8257 29.9126L29.6028 12.317L48.4301 0L41.9197 17.2437L46.4946 17.7716L48.4301 15.8361L68.4892 46.9804L49.4859 74.2537ZM39.4564 46.2766L49.4859 32.376L58.6356 46.2766L49.4859 61.4089L39.4564 46.2766Z" fill="#92D7F3"/>
</svg>
