<svg width="26" height="24" viewBox="0 0 26 24" fill="none" xmlns="http://www.w3.org/2000/svg">
<g filter="url(#filter0_d_121_469)">
<path d="M1.0293 19.6667V17.1208C1.0293 16.4889 1.1918 15.9156 1.5168 15.4011C1.8418 14.8865 2.29319 14.5028 2.87096 14.25C4.18902 13.6722 5.37617 13.257 6.43242 13.0042C7.48867 12.7514 8.57652 12.625 9.69596 12.625C10.8154 12.625 11.8987 12.7514 12.946 13.0042C13.9932 13.257 15.1758 13.6722 16.4939 14.25C17.0717 14.5028 17.5276 14.8865 17.8616 15.4011C18.1956 15.9156 18.3626 16.4889 18.3626 17.1208V19.6667H1.0293ZM19.9876 19.6667V17.1208C19.9876 15.9833 19.6987 15.049 19.121 14.3177C18.5432 13.5865 17.7849 12.9952 16.846 12.5438C18.0918 12.6882 19.2654 12.9004 20.3668 13.1802C21.4682 13.4601 22.3619 13.7806 23.048 14.1417C23.6439 14.4847 24.1133 14.909 24.4564 15.4146C24.7994 15.9202 24.971 16.4889 24.971 17.1208V19.6667H19.9876ZM9.69596 10.9729C8.5043 10.9729 7.5293 10.5938 6.77096 9.83543C6.01263 9.0771 5.63346 8.1021 5.63346 6.91043C5.63346 5.71876 6.01263 4.74376 6.77096 3.98543C7.5293 3.2271 8.5043 2.84793 9.69596 2.84793C10.8876 2.84793 11.8626 3.2271 12.621 3.98543C13.3793 4.74376 13.7585 5.71876 13.7585 6.91043C13.7585 8.1021 13.3793 9.0771 12.621 9.83543C11.8626 10.5938 10.8876 10.9729 9.69596 10.9729V10.9729ZM19.446 6.91043C19.446 8.1021 19.0668 9.0771 18.3085 9.83543C17.5501 10.5938 16.5751 10.9729 15.3835 10.9729C15.1849 10.9729 14.9637 10.9594 14.7199 10.9323C14.4762 10.9052 14.255 10.8556 14.0564 10.7833C14.4897 10.332 14.8192 9.77675 15.0449 9.11772C15.2706 8.45869 15.3835 7.72293 15.3835 6.91043C15.3835 6.09793 15.2706 5.38022 15.0449 4.75731C14.8192 4.13439 14.4897 3.56113 14.0564 3.03751C14.255 2.98335 14.4762 2.93821 14.7199 2.9021C14.9637 2.86599 15.1849 2.84793 15.3835 2.84793C16.5751 2.84793 17.5501 3.2271 18.3085 3.98543C19.0668 4.74376 19.446 5.71876 19.446 6.91043V6.91043Z" fill="#92D7F3"/>
</g>
<defs>
<filter id="filter0_d_121_469" x="-2.9707" y="0.847931" width="31.9419" height="24.8188" filterUnits="userSpaceOnUse" color-interpolation-filters="sRGB">
<feFlood flood-opacity="0" result="BackgroundImageFix"/>
<feColorMatrix in="SourceAlpha" type="matrix" values="0 0 0 0 0 0 0 0 0 0 0 0 0 0 0 0 0 0 127 0" result="hardAlpha"/>
<feOffset dy="2"/>
<feGaussianBlur stdDeviation="2"/>
<feComposite in2="hardAlpha" operator="out"/>
<feColorMatrix type="matrix" values="0 0 0 0 0.0470588 0 0 0 0 0.0666667 0 0 0 0 0.0823529 0 0 0 0.4 0"/>
<feBlend mode="normal" in2="BackgroundImageFix" result="effect1_dropShadow_121_469"/>
<feBlend mode="normal" in="SourceGraphic" in2="effect1_dropShadow_121_469" result="shape"/>
</filter>
</defs>
</svg>
