<svg width="73" height="96" viewBox="0 0 73 96" fill="none" xmlns="http://www.w3.org/2000/svg">
<path fill-rule="evenodd" clip-rule="evenodd" d="M29.2603 96H20.814C17.697 90.0064 9.17025 78.0191 0 78.0191V44.8C0 32.6095 9.35124 5.18095 29.2603 5.18095V0H36.5H43.7397V5.18095C63.6488 5.18095 73 32.6095 73 44.8V78.0191C63.8298 78.0191 55.303 90.0064 52.1859 96H43.7397L45.8512 68.5714C55.0215 66.3771 60.1295 52.8254 61.5372 46.3238C57.9174 43.3981 47.1584 44.0889 42.2314 44.8L36.5 71.3143L30.7686 44.8C25.8416 44.0889 15.0826 43.3981 11.4628 46.3238C12.8705 52.8254 17.9785 66.3771 27.1488 68.5714L29.2603 96Z" fill="#F39292"/>
</svg>
